<?xml version="1.0" standalone="no"?>
<!DOCTYPE svg PUBLIC "-//W3C//DTD SVG 20010904//EN"
 "http://www.w3.org/TR/2001/REC-SVG-20010904/DTD/svg10.dtd">
<svg version="1.0" xmlns="http://www.w3.org/2000/svg"
 width="100.000000pt" height="100.000000pt" viewBox="0 0 100.000000 100.000000"
 preserveAspectRatio="xMidYMid meet">

<g transform="translate(0.000000,100.000000) scale(0.100000,-0.100000)"
fill="#000000" stroke="none">
<path d="M152 928 c-17 -17 -17 -299 0 -316 17 -17 679 -17 696 0 17 17 17
299 0 316 -17 17 -679 17 -696 0z m403 -98 c38 -39 46 -53 37 -62 -9 -9 -18
-6 -41 16 l-30 29 -3 -74 c-2 -58 -6 -74 -18 -74 -12 0 -16 16 -18 74 l-3 74
-30 -29 c-23 -22 -32 -25 -41 -16 -9 9 -1 23 37 62 27 28 52 50 55 50 3 0 28
-22 55 -50z"/>
<path d="M144 554 c-7 -3 -24 -50 -40 -104 -22 -82 -25 -102 -14 -115 25 -30
37 -15 54 68 28 127 13 118 184 115 l147 -3 3 -97 c2 -89 4 -98 22 -98 18 0
20 9 22 98 l3 97 147 3 c171 3 156 12 184 -115 17 -83 29 -98 54 -68 11 13 8
33 -14 115 -17 57 -34 101 -43 104 -17 7 -693 7 -709 0z"/>
<path d="M187 408 c-10 -40 -17 -76 -17 -80 0 -5 61 -8 135 -8 l135 0 0 80 0
80 -118 0 -118 0 -17 -72z"/>
<path d="M560 400 l0 -80 135 0 c74 0 135 3 135 8 0 4 -7 40 -17 80 l-17 72
-118 0 -118 0 0 -80z"/>
<path d="M40 219 c0 -103 1 -111 25 -134 l24 -25 411 0 411 0 24 25 c24 23 25
31 25 134 l0 110 -25 -24 -24 -25 -411 0 -411 0 -24 25 -25 24 0 -110z m358
-10 c7 -43 20 -49 102 -49 83 0 96 6 102 50 5 37 32 32 36 -7 2 -24 -3 -39
-22 -58 -23 -23 -32 -25 -116 -25 -83 0 -93 2 -115 25 -34 33 -34 103 -1 92 6
-2 13 -14 14 -28z"/>
</g>
</svg>
