<svg id="Layer_1" data-name="Layer 1" xmlns="http://www.w3.org/2000/svg" viewBox="0 0 416.52 162.03"><defs><style>.cls-1{fill:#fff;}</style></defs><path class="cls-1" d="M17.26,8.14c-4,4-4.17,4.69-4.17,30.49,0,14.57.83,27.63,1.67,29,1,1.67.66,3.35-.84,5C12.76,74,9.75,81.83,7.42,90.21c-3.67,12.73-4.34,18.25-4.34,37.34,0,21.44.17,22.45,4.17,26.3l4,4.19h137.1l4-4.19c4-3.85,4.17-4.86,4.17-26.3,0-19.09-.66-24.61-4.33-37.34-2.34-8.38-5.34-16.25-6.51-17.59-1.5-1.67-1.83-3.35-.83-5,.83-1.34,1.67-14.4,1.67-29,0-25.8-.17-26.47-4.17-30.49l-4-4.18H21.26Zm120.58,4.53c2.84,2.84,2.84,50.07,0,52.92s-113.24,2.85-116.08,0-2.83-50.08,0-52.92S135,9.82,137.84,12.67Zm.84,62.63c1.5.5,4.33,7.87,7.17,17.42,3.67,13.73,4.17,17.08,2.33,19.26-4.17,5-6.17,2.51-9-11.39-4.67-21.27-2.17-19.76-30.69-19.26L84,81.83l-.5,16.25c-.33,14.9-.67,16.41-3.67,16.41S76.47,113,76.13,98.08l-.5-16.25-24.51-.5c-28.52-.5-26-2-30.69,19.26-2.84,13.9-4.84,16.41-9,11.39-1.83-2.18-1.33-5.53,2.34-19.26,2.67-9,5.5-16.92,6.67-17.42C23.1,74.13,135.84,74.13,138.68,75.3ZM69.8,101.09v13.4H47.28c-12.34,0-22.52-.5-22.52-1.34,0-.67,1.17-6.7,2.84-13.4l2.83-12H69.8ZM132,99.75c1.66,6.7,2.83,12.73,2.83,13.4,0,.84-10.17,1.34-22.51,1.34H89.81V87.7h39.36Zm17.84,34.17c0,8.2-.83,14.23-2,15.41-2.84,2.84-133.26,2.84-136.09,0-1.17-1.18-2-7.21-2-15.41V120.35h140.1Z"/><path class="cls-1" d="M70.63,25.73c-6.34,6.53-7.67,8.88-6.17,10.38s3,1,7-2.84l4.84-4.69.5,14.06c.33,11.23,1,14.07,3,14.07s2.67-2.84,3-14.07l.5-14.06,4.84,4.69c4,3.85,5.51,4.35,7,2.84s.16-3.85-6.17-10.38C84.47,21,80.3,17.36,79.8,17.36S75.13,21,70.63,25.73Z"/><path class="cls-1" d="M57.62,128.89c-2.67,2.68-1,11.06,3,14.91C64.29,147.65,66,148,79.8,148c14,0,15.51-.34,19.35-4.19,3.17-3.18,4-5.69,3.67-9.71-.67-6.54-5.17-7.37-6-1.18-1,7.37-3.16,8.38-17,8.38-13.67,0-15.84-1-17-8.21C62.29,128.89,59.62,126.88,57.62,128.89Z"/><path class="cls-1" d="M189.22,57.67l2.16-52.49h16.13c12.17,0,18.29,5.54,18.29,16.2,0,5.4-1.59,9.5-4.68,12.45s-7.56,4.47-13.61,4.47h-6.84L200,57.67ZM201,10.72c-.15,2.81-.22,5.4-.29,7.92s-.22,5.19-.29,8.14h7.71c5.9,0,9.21-2.88,9.21-8.07s-3.31-8-9.21-8Z"/><path class="cls-1" d="M270,57.67h-8.72v-3c-2.8,2.6-6.41,4-11.3,4-4.18,0-7.42-1.15-9.94-3.52a12.38,12.38,0,0,1-3.74-9.44c0-9.14,5.9-13.82,17.85-13.82h7.13c-.28-4.18-3.52-6.91-9.14-7.35-4,0-8.35,1.37-13.11,3.89v-8a39.63,39.63,0,0,1,13.83-2.95c11.45,0,17.14,5.9,17.14,17.93ZM258,38.88H253.8c-4.17,0-6.84.43-8.06,1.29A4.42,4.42,0,0,0,244,44a2.88,2.88,0,0,0,1.73,2.23,20.44,20.44,0,0,0,5.11.58c5.33,0,7.13-.87,7.13-7.85Z"/><path class="cls-1" d="M312.27,28.51c-4.46-2.45-8.42-3.68-11.67-3.68-7.05,0-10.65,4.9-10.72,13,.28,2.66,1.22,4.75,2.59,5.76,1.58,1,4.68,1.73,7.92,2h5.18c1.52-.07,3.68-.79,6.48-2.44l.22,12.6A29,29,0,0,1,300,58.6c-11.81,0-19.44-8.2-19.44-20.59,0-12.67,7.56-20.59,19.8-20.59a29.6,29.6,0,0,1,11.95,2.73Z"/><path class="cls-1" d="M322.78,57.67,324.15,4h8.71l-.36,26.64L343,18.28H354.1L339.27,36.64c1.65,1.66,3.45,3.32,5.25,5.11s3.75,3.68,5.69,5.48l5.62,5.4c1.87,1.8,3.6,3.45,5.18,5H344.67L332.72,43l.86,14.69Z"/><path class="cls-1" d="M165.6,144.07l2.16-52.49h12.17L191.53,117,203.7,91.58h11.59l2.09,52.49H205L206.14,108l-9.65,28.16h-10l-9.65-28.23c.14,6,.36,12.1.57,18.15s.36,12.09.58,18Z"/><path class="cls-1" d="M264.25,124.19H236.88c.29,3.46,1.37,5.91,2.88,7a21.34,21.34,0,0,0,8.79,2.3c2.38,0,4.39-.07,6.62-.28,2-.15,4.68-1.16,7.85-2.81l.15,11.37a37.72,37.72,0,0,1-15,3.24c-6.12-.21-11-2.08-14.76-5.61s-5.55-8.5-5.55-14.69c.44-12.67,7.49-20.88,19.37-20.88,5.33.21,9.36,1.65,12.17,4.32h-.07c2.81,2.66,4.46,6.77,4.9,12.31ZM256,116.27a17.25,17.25,0,0,0-2.59-4,7.73,7.73,0,0,0-6.2-2.73,9.45,9.45,0,0,0-7.13,2.73v-.07a8.79,8.79,0,0,0-2.52,4Z"/><path class="cls-1" d="M302.91,91.58h9.5v26.93c0,5,.87,8.56,2.59,10.72v-.07c1.66,2,4.47,3,8.36,3s6.69-1,8.35-3v.07c1.73-2.16,2.59-5.76,2.59-10.72V91.58h9.43v32.47c0,13.9-6.91,21-20.37,21s-20.45-7.2-20.45-21Z"/><path class="cls-1" d="M363,158H352.51l2.24-18.22.86-35.14h8.78l-.21,2.52a14.58,14.58,0,0,1,9.94-3.38c9.64,0,16.34,8.49,16.34,20.59S383.76,145,374.12,145c-4.4,0-7.93-1.29-10.59-4Zm21-34.71c0-4.18-.86-7.34-2.52-9.58a7.49,7.49,0,0,0-6.48-3.31,7.69,7.69,0,0,0-6.48,3.31v-.07c-1.58,2.31-2.45,5.55-2.45,9.65,0,8,3.46,9.15,9.29,9.15S384,131.4,384,123.33Z"/><path class="cls-1" d="M401.69,115.27V92.58l9.58-.14.36,22.75,1.08,13.11H401l.72-13.11Zm-.43,28.8.86-10.95h9.43l.8,10.95Z"/></svg>