<svg id="Layer_1" data-name="Layer 1" xmlns="http://www.w3.org/2000/svg" viewBox="0 0 421.03 158.09"><defs><style>.cls-1{fill:#fff;}</style></defs><path class="cls-1" d="M15.31,5.81c-3.69,3.7-3.84,4.32-3.84,28.07,0,13.41.76,25.44,1.53,26.67.92,1.54.62,3.08-.77,4.63-1.07,1.23-3.83,8.48-6,16.19-3.38,11.71-4,16.8-4,34.38,0,19.74.16,20.66,3.84,24.21l3.69,3.85H136l3.68-3.85c3.69-3.55,3.84-4.47,3.84-24.21,0-17.58-.61-22.67-4-34.38-2.15-7.71-4.91-15-6-16.19-1.38-1.55-1.69-3.09-.77-4.63.77-1.23,1.54-13.26,1.54-26.67,0-23.75-.15-24.37-3.84-28.07L126.79,2H19Zm111,4.17c2.62,2.62,2.62,46.1,0,48.72s-104.26,2.62-106.87,0-2.61-46.1,0-48.72S123.71,7.35,126.32,10Zm.77,57.66c1.38.47,4,7.25,6.61,16,3.37,12.64,3.83,15.73,2.14,17.73-3.83,4.63-5.68,2.31-8.29-10.48-4.3-19.59-2-18.2-28.25-17.74l-22.57.47-.46,15c-.31,13.73-.62,15.11-3.38,15.11s-3.07-1.38-3.38-15.11l-.46-15-22.57-.47c-26.26-.46-24-1.85-28.26,17.74-2.61,12.79-4.45,15.11-8.29,10.48-1.69-2-1.23-5.09,2.15-17.73,2.46-8.33,5.07-15.57,6.14-16C20.68,66.56,124.48,66.56,127.09,67.64ZM63.67,91.39v12.33H42.94c-11.36,0-20.72-.46-20.72-1.23,0-.62,1.07-6.17,2.61-12.33l2.61-11.11H63.67ZM121,90.16c1.54,6.16,2.61,11.71,2.61,12.33,0,.77-9.37,1.23-20.73,1.23H82.1V79.05h36.24Zm16.43,31.45c0,7.56-.77,13.11-1.84,14.19-2.61,2.62-122.69,2.62-125.3,0-1.08-1.08-1.84-6.63-1.84-14.19V109.12h129Z"/><path class="cls-1" d="M64.44,22c-5.83,6-7.06,8.17-5.68,9.56s2.76.93,6.45-2.62l4.45-4.32.46,13c.31,10.33.93,13,2.77,13s2.45-2.62,2.76-13l.46-13,4.46,4.32c3.68,3.55,5.06,4,6.44,2.62S87.17,28,81.33,22c-4.14-4.31-8-7.71-8.44-7.71S68.59,17.69,64.44,22Z"/><path class="cls-1" d="M52.47,117c-2.46,2.47-.93,10.18,2.76,13.73,3.38,3.54,4.91,3.85,17.66,3.85,12.9,0,14.28-.31,17.81-3.85,2.92-2.93,3.69-5.24,3.38-9-.62-6-4.76-6.78-5.53-1.07-.92,6.78-2.92,7.7-15.66,7.7s-14.59-.92-15.66-7.55C56.76,117,54.31,115.13,52.47,117Z"/><path class="cls-1" d="M215.73,56.71l2.16-52.49h15.62c11.81,0,17.86,5.4,17.86,15.7s-6.05,16.41-17.86,16.41h-8.57l-.72,20.38Zm18.5-49.47H225.3L224.58,27h9.65c7.06,0,11.09-3.53,11.09-9.86S241.29,7.24,234.23,7.24Z"/><path class="cls-1" d="M295.22,34.25V56.71h-6.48V51.09c-3,4.33-7.2,6.63-13.61,6.63-8,0-13.18-4.9-13.18-12.46,0-8.85,6-13.39,17.71-13.39h9.08v-.65c0-6-3.6-9.58-11.16-10.08a26.41,26.41,0,0,0-12.75,3.24V19.12a38,38,0,0,1,13.39-2.73C289.67,16.39,295.22,22.22,295.22,34.25Zm-10.08,2.37H279.3c-9.43,0-11.88,2-11.95,6.84.72,4,4.11,4.39,8.79,4.39,6.48,0,9-1.36,9-9.79Z"/><path class="cls-1" d="M336.9,18.83v5.69a22.8,22.8,0,0,0-11.08-3c-8.43,0-12.89,6-12.89,15.55.64,6.77,4.17,9.08,12.6,9.51,3.74,0,7.56.5,11.23-1.51l.14,10.15a27.6,27.6,0,0,1-11.8,2.52c-11.81,0-19.37-8-19.37-20.67s7.56-20.66,19.8-20.66A26.75,26.75,0,0,1,336.9,18.83Z"/><path class="cls-1" d="M347.41,56.71,348.85,2h6.48L355,32.88l13.32-15.56h8.29L361.67,35.76l21.75,21H370.1L355,38.21l1.08,18.5Z"/><path class="cls-1" d="M178.11,143.11l1.08-52.49h10.58l13,31.18,13.82-31.18h9.87l1.08,52.49H218.5L219.94,97l-12.81,37.73h-8.57L185.74,97l1.37,46.08Z"/><path class="cls-1" d="M274.23,119.35v2.45H244.85c.15,10.51,5.33,12.31,13.9,12.74,5,0,9.65.07,14.26-2.37l.14,8.92a36.61,36.61,0,0,1-14.62,3c-12.53-.43-20.45-7.85-20.45-20.31.51-12.89,7.49-21,19.37-21C268,103.22,273.37,108.12,274.23,119.35Zm-28.66-3.17,23-.07c-.72-4.39-4.75-9.94-11.16-9.94C250.25,106.17,245.57,111.43,245.57,116.18Z"/><path class="cls-1" d="M312.89,123.38V90.62h7.49l-.72,27c-.22,11.23,4.25,15.84,13.39,15.84s13.54-4.61,13.25-15.84l-.72-27h7.49v32.76c0,13.68-6.84,20.74-20,20.74S312.89,137.06,312.89,123.38Z"/><path class="cls-1" d="M372.22,137.21l-.29,20.88h-8.28L366.82,134V104.3h6.48l-1.08,5.4c2.66-4.68,6.84-6.91,12.6-6.91,9.58,0,16.13,8.28,16.13,20.66s-6.55,20.67-16.13,20.67C379.06,144.12,374.88,141.89,372.22,137.21Zm24.55-14.91c0-9.5-4.1-15.19-11-15.19s-10.95,5.69-10.95,15.19,4.47,11.16,11.31,11.16S396.77,131.88,396.77,122.3Z"/><path class="cls-1" d="M412.18,113.66l.65-23h6.84l.28,23L421,126.19h-9.57Zm-.36,29.45.64-8.93H420l.72,8.93Z"/></svg>