<?xml version="1.0" standalone="no"?>
<!DOCTYPE svg PUBLIC "-//W3C//DTD SVG 20010904//EN"
 "http://www.w3.org/TR/2001/REC-SVG-20010904/DTD/svg10.dtd">
<svg version="1.0" xmlns="http://www.w3.org/2000/svg"
 width="100.000000pt" height="100.000000pt" viewBox="0 0 100.000000 100.000000"
 preserveAspectRatio="xMidYMid meet">

<g transform="translate(0.000000,100.000000) scale(0.100000,-0.100000)"
fill="#000000" stroke="none">
<path d="M125 935 c-24 -24 -25 -28 -25 -182 0 -87 5 -165 10 -173 6 -10 4
-20 -5 -30 -7 -8 -25 -55 -39 -105 -22 -76 -26 -109 -26 -223 0 -128 1 -134
25 -157 l24 -25 411 0 411 0 24 25 c24 23 25 29 25 157 0 114 -4 147 -26 223
-14 50 -32 97 -39 105 -9 10 -11 20 -5 30 5 8 10 86 10 173 0 154 -1 158 -25
182 l-24 25 -351 0 -351 0 -24 -25z m723 -27 c17 -17 17 -299 0 -316 -17 -17
-679 -17 -696 0 -17 17 -17 299 0 316 17 17 679 17 696 0z m5 -374 c9 -3 26
-47 43 -104 22 -82 25 -102 14 -115 -25 -30 -37 -15 -54 68 -28 127 -13 118
-184 115 l-147 -3 -3 -97 c-2 -89 -4 -98 -22 -98 -18 0 -20 9 -22 98 l-3 97
-147 3 c-171 3 -156 12 -184 -115 -17 -83 -29 -98 -54 -68 -11 13 -8 33 14
115 16 54 33 101 40 104 16 7 692 7 709 0z m-413 -154 l0 -80 -135 0 c-74 0
-135 3 -135 8 0 4 7 40 17 80 l17 72 118 0 118 0 0 -80z m373 8 c10 -40 17
-76 17 -80 0 -5 -61 -8 -135 -8 l-135 0 0 80 0 80 118 0 118 0 17 -72z m107
-204 c0 -49 -5 -85 -12 -92 -17 -17 -799 -17 -816 0 -7 7 -12 43 -12 92 l0 81
420 0 420 0 0 -81z"/>
<path d="M445 830 c-38 -39 -46 -53 -37 -62 9 -9 18 -6 42 17 l29 28 3 -84 c2
-67 6 -84 18 -84 12 0 16 17 18 84 l3 84 29 -28 c24 -23 33 -26 42 -17 9 9 1
23 -37 62 -27 28 -52 50 -55 50 -3 0 -28 -22 -55 -50z"/>
<path d="M367 214 c-16 -16 -6 -66 18 -89 22 -23 32 -25 115 -25 84 0 93 2
116 25 19 19 24 34 22 58 -4 39 -31 44 -36 7 -6 -44 -19 -50 -102 -50 -82 0
-95 6 -102 49 -3 25 -19 37 -31 25z"/>
</g>
</svg>
